<svg xmlns="http://www.w3.org/2000/svg" width="24" height="23" viewBox="0 0 24 23">
    <g fill="none" fill-rule="evenodd" transform="translate(.082)">
        <rect width="23.172" height="23" fill="#191619" rx="1.278"/>
        <path fill="#F90" d="M17.527 17.33c-1.61 1.199-3.945 1.837-5.956 1.837-2.818 0-5.355-1.051-7.275-2.8-.151-.138-.017-.325.165-.219 2.071 1.216 4.633 1.949 7.28 1.949 1.785 0 3.747-.374 5.552-1.147.273-.116.5.181.234.38zm.67-1.082c-.206-.266-1.361-.126-1.88-.063-.158.019-.182-.12-.04-.22.922-.653 2.432-.465 2.608-.246.177.22-.047 1.748-.91 2.478-.133.112-.26.052-.2-.096.193-.49.629-1.587.423-1.853z"/>
        <path fill="#FFF" d="M14.217 14.2a.349.349 0 0 1-.4.04c-.565-.473-.666-.692-.974-1.142-.932.958-1.592 1.245-2.799 1.245-1.429 0-2.54-.89-2.54-2.67 0-1.39.746-2.335 1.81-2.798.921-.408 2.207-.482 3.192-.594V8.06c0-.408.032-.89-.207-1.242-.206-.315-.603-.445-.952-.445-.648 0-1.224.335-1.365 1.029-.03.154-.14.307-.295.314l-1.645-.18c-.14-.03-.294-.143-.253-.357.378-2.014 2.18-2.622 3.796-2.622.826 0 1.905.222 2.557.852.825.779.746 1.817.746 2.948v2.668c0 .802.33 1.154.64 1.587.109.156.133.341-.005.455a73.94 73.94 0 0 0-1.302 1.137l-.004-.004zm-1.711-4.176c0 .667.016 1.223-.318 1.817-.27.482-.698.778-1.175.778-.651 0-1.032-.5-1.032-1.242 0-1.458 1.297-1.724 2.525-1.724v.371z"/>
    </g>
</svg>
