<svg xmlns="http://www.w3.org/2000/svg" width="13" height="13" viewBox="0 0 13 13">
    <g fill="none" fill-rule="evenodd">
        <circle cx="6.5" cy="6.5" r="6.5" fill="#22E4AB"/>
        <g stroke="#FFF" stroke-width=".571">
            <path stroke-linecap="round" d="M3.225 5.899l.548 2.26.624-.146-.13-1.263"/>
            <path fill="#22E4AB" d="M5.488 6.765a2.04 2.04 0 0 1-.59.086c-1.023 0-1.853-.747-1.853-1.668 0-.79.612-1.453 1.432-1.625"/>
            <path d="M5.922 6.838a.37.37 0 0 1-.458-.252l-.88-3.033a.373.373 0 0 1 .25-.461.37.37 0 0 1 .458.252l.88 3.033a.373.373 0 0 1-.25.461zM4.875 10.8l-.788-2.714"/>
            <path stroke-linecap="round" d="M9.775 6.628l-.48 1.975-.545-.128.114-1.103"/>
            <path fill="#22E4AB" d="M7.797 7.385c.162.048.335.075.515.075.894 0 1.62-.653 1.62-1.458 0-.69-.535-1.269-1.252-1.42"/>
            <path d="M7.418 7.449c.17.05.35-.05.4-.22l.77-2.651a.326.326 0 0 0-.22-.403.323.323 0 0 0-.4.22L7.2 7.046a.326.326 0 0 0 .219.404zM8.332 10.91l.69-2.372"/>
        </g>
    </g>
</svg>
