<svg xmlns="http://www.w3.org/2000/svg" width="13" height="13" viewBox="0 0 13 13">
    <g fill="none" fill-rule="evenodd">
        <circle cx="6.5" cy="6.5" r="6.5" fill="#1C75BC"/>
        <g fill="#FFF" stroke="#FFF" stroke-width=".1">
            <path d="M10.333 4H2.667a.167.167 0 0 0-.167.167v5.666c0 .092.075.167.167.167h7.666a.167.167 0 0 0 .167-.167V4.167A.167.167 0 0 0 10.333 4zm-.166 5.667H2.833V4.333h7.334v5.334z"/>
            <path d="M3.333 8.667a.167.167 0 0 0 0 .333H3.5v.167a.167.167 0 0 0 .333 0V9h5.334v.167a.167.167 0 0 0 .333 0V9h.167a.167.167 0 0 0 0-.333H9.5V5.333h.167a.167.167 0 0 0 0-.333H9.5v-.167a.167.167 0 0 0-.333 0V5H3.833v-.167a.167.167 0 0 0-.333 0V5h-.167a.167.167 0 0 0 0 .333H3.5v3.334h-.167zm5.834-3.334v2.334l-.7-.934a.167.167 0 0 0-.234-.033l-1.217.913-1.898-1.898a.178.178 0 0 0-.134-.048.168.168 0 0 0-.123.074L3.833 7.283v-1.95h5.334zm-5.334 2.55l1.193-1.788 1.856 1.856.018.012a.147.147 0 0 0 .028.018c.01.005.019.007.029.01.01.003.02.006.032.006.01.001.02 0 .03-.001a.144.144 0 0 0 .032-.006.148.148 0 0 0 .03-.014c.006-.004.013-.005.019-.01l1.2-.9.867 1.156v.445H3.833v-.783z"/>
            <path d="M7.167 7a.667.667 0 1 0-.002-1.335A.667.667 0 0 0 7.167 7zm0-1a.334.334 0 1 1-.001.667.334.334 0 0 1 0-.667z"/>
        </g>
    </g>
</svg>
