<svg xmlns="http://www.w3.org/2000/svg" width="13" height="13" viewBox="0 0 13 13">
    <g fill="none" fill-rule="evenodd">
        <circle cx="6.5" cy="6.5" r="6.5" fill="#669073"/>
        <path fill="#FFF" stroke="#FFF" stroke-width=".1" d="M6 7.5v-.167H5.167V8.167H6V7.5zm.333-.167V8.167A.332.332 0 0 1 6 8.5h-.833a.334.334 0 0 1-.334-.333V7.333c0-.184.148-.333.334-.333H6c.184 0 .333.15.333.333zM6 6.167V5.5H5.167v.833l.666.001H6v-.167zm.333-.667V6.334A.332.332 0 0 1 6 6.667H5.167a.334.334 0 0 1-.334-.333V5.5c0-.185.148-.333.334-.333H6c.184 0 .333.15.333.333zm1.5.834V5.5H7v.833H7.833zm.334-.834v.834a.332.332 0 0 1-.334.333H7a.334.334 0 0 1-.333-.333V5.5c0-.185.148-.333.333-.333H7.833c.184 0 .334.15.334.333zm.5-1.167v-.666a.334.334 0 0 0-.333-.334H4.666a.334.334 0 0 0-.333.334v.666h4.334zm0 3.167V4.667H4.333v4.666H8.667V7.5zm0 2.167H4.333v.666c0 .184.15.334.333.334h3.668c.183 0 .333-.15.333-.334v-.666zm.333-6v6.666c0 .368-.3.667-.666.667H4.666A.667.667 0 0 1 4 10.333V3.667C4 3.299 4.3 3 4.666 3h3.668c.367 0 .666.3.666.667zM6.5 10a.167.167 0 1 0 0 .333.167.167 0 0 0 0-.333zm.667-6.167A.167.167 0 0 1 7 4H6a.167.167 0 0 1 0-.333h1c.092 0 .167.074.167.166z"/>
    </g>
</svg>
