<svg xmlns="http://www.w3.org/2000/svg" width="13" height="13" viewBox="0 0 13 13">
    <g fill="none" fill-rule="evenodd">
        <circle cx="6.5" cy="6.5" r="6.5" fill="#F87A30"/>
        <path fill="#FFF" stroke="#FFF" stroke-width=".1" d="M5 6.5h-.167v.333h1.834V6.5H5zm0-1h-.167v.333H8V5.5H5zm3.667 1.167v-2H4.333v4.666h4.334V6.667zm0 3H4.333v.666c0 .184.15.334.333.334h3.668c.183 0 .333-.15.333-.334v-.666zM4.333 4.333h4.334v-.666a.334.334 0 0 0-.333-.334H4.666a.334.334 0 0 0-.333.334v.666zM9 3.667v6.666c0 .368-.3.667-.666.667H4.666A.667.667 0 0 1 4 10.333V3.667C4 3.299 4.3 3 4.666 3h3.668c.367 0 .666.3.666.667zM6.5 10a.167.167 0 1 0 0 .333.167.167 0 0 0 0-.333zm-.667-6.167c0-.092.075-.166.167-.166h1A.167.167 0 1 1 7 4H6a.167.167 0 0 1-.167-.167z"/>
    </g>
</svg>
