<svg xmlns="http://www.w3.org/2000/svg" width="7" height="7" viewBox="0 0 7 7">
    <path fill="#FFF" fill-rule="evenodd" d="M7 .737c-.257.125-.534.21-.825.247.297-.194.524-.502.632-.87a2.73 2.73 0 0 1-.912.382A1.38 1.38 0 0 0 4.846 0C4.053 0 3.41.703 3.41 1.57c0 .124.013.244.038.359C2.254 1.863 1.196 1.238.488.288a1.676 1.676 0 0 0-.195.79c0 .544.253 1.025.639 1.307a1.34 1.34 0 0 1-.65-.197v.02c0 .761.494 1.396 1.151 1.54a1.328 1.328 0 0 1-.648.027c.183.624.713 1.078 1.341 1.091A2.729 2.729 0 0 1 0 5.516c.636.446 1.39.706 2.201.706 2.642 0 4.087-2.393 4.087-4.47 0-.067-.002-.135-.004-.203.28-.22.524-.497.716-.812z"/>
</svg>
