<svg xmlns="http://www.w3.org/2000/svg" width="13" height="13" viewBox="0 0 13 13">
    <g fill="none" fill-rule="evenodd">
        <circle cx="6.5" cy="6.5" r="6.5" fill="#00AAE4"/>
        <path fill="#FFF" stroke="#FFF" stroke-width=".1" d="M5.326 7.588h.63v.353H4.218v-.353h1.109zm.109-1.059h2.26v.353H4.218V6.53h1.218zm5.217.531a.35.35 0 0 1-.347.352h-.796V8.329l-.596-.555V5.822a.7.7 0 0 0-.695-.704H5.435V3.705a.35.35 0 0 1 .347-.352h4.523c.193 0 .347.157.347.351V7.06zM8.565 9.178a.348.348 0 0 1-.347.351H5.542l-.282.26-.102.093-.593.544v-.897h-.87a.35.35 0 0 1-.347-.351V5.822a.352.352 0 0 1 .347-.352h4.523c.128 0 .24.072.3.177.029.052.047.111.047.175v3.356zM10.305 3H5.782a.7.7 0 0 0-.695.704V5.118H3.695A.699.699 0 0 0 3 5.822v3.356a.7.7 0 0 0 .695.704h.522v.941c0 .153.179.234.291.131l1.169-1.072h2.541a.702.702 0 0 0 .695-.704v-.925l.653.606a.17.17 0 0 0 .217.014.172.172 0 0 0 .074-.144v-.964h.448A.7.7 0 0 0 11 7.06V3.704c0-.39-.31-.704-.695-.704z"/>
    </g>
</svg>
