<svg xmlns="http://www.w3.org/2000/svg" width="13" height="13" viewBox="0 0 13 13">
    <g fill="none" fill-rule="evenodd">
        <circle cx="6.5" cy="6.5" r="6.5" fill="#4B7F98"/>
        <g fill="#FFF" stroke="#FFF" stroke-width=".1">
            <path d="M9.24 4H3.76c-.419 0-.76.28-.76.625v2.75c0 .345.341.625.76.625h5.48c.419 0 .76-.28.76-.625v-2.75C10 4.28 9.659 4 9.24 4zm.456 3.375c0 .207-.205.375-.457.375H3.761c-.252 0-.457-.168-.457-.375v-2.75c0-.207.205-.375.457-.375h5.478c.252 0 .457.168.457.375v2.75z"/>
            <path d="M7.481 6.013l-1.826-.75a.183.183 0 0 0-.148.006c-.045.023-.072.063-.072.106v1.5c0 .043.027.083.072.107a.18.18 0 0 0 .148.005l1.826-.75c.052-.022.084-.065.084-.112s-.032-.09-.084-.112zm-1.742.66V5.577l1.334.548-1.334.548zM9.848 8.5H8.45c-.063-.145-.23-.25-.428-.25-.198 0-.366.105-.429.25h-4.44c-.085 0-.153.056-.153.125s.068.125.152.125h4.441c.063.145.23.25.429.25.198 0 .365-.105.428-.25h1.398c.084 0 .152-.056.152-.125S9.932 8.5 9.848 8.5zm-1.826.25c-.084 0-.152-.056-.152-.125s.068-.125.152-.125c.084 0 .152.056.152.125s-.068.125-.152.125z"/>
        </g>
    </g>
</svg>
