<svg xmlns="http://www.w3.org/2000/svg" width="13" height="13" viewBox="0 0 13 13">
    <g fill="none" fill-rule="evenodd">
        <circle cx="6.5" cy="6.5" r="6.5" fill="#669073"/>
        <path fill="#FFF" stroke="#FFF" stroke-width=".1" d="M4.24 3.854c0-.095.077-.171.173-.171.096 0 .174.076.174.17 0 .095-.078.171-.174.171a.172.172 0 0 1-.174-.17zm-.523 0c0-.095.078-.171.174-.171.096 0 .174.076.174.17 0 .095-.078.171-.174.171a.172.172 0 0 1-.174-.17zm-.347.17a.172.172 0 0 1-.174-.17c0-.095.078-.171.174-.171.096 0 .173.076.173.17 0 .095-.077.171-.173.171zm5.739 2.05a.173.173 0 0 1-.174-.172c0-.094.078-.17.174-.17.096 0 .174.076.174.17 0 .095-.078.171-.174.171zm0-.684a.518.518 0 0 0-.522.512c0 .08.02.155.054.223l-.02.016-.91 1.194-.73-.859a.176.176 0 0 0-.278.015l-.925 1.363-.72-.706a.176.176 0 0 0-.255.01L3.759 8.351a.168.168 0 0 0 .02.241.176.176 0 0 0 .244-.019l.922-1.055.736.724a.176.176 0 0 0 .268-.026l.914-1.347.72.85a.176.176 0 0 0 .274-.008l1.03-1.348a.518.518 0 0 0 .744-.462.518.518 0 0 0-.522-.512zm1.043 4.098c0 .094-.078.17-.174.17H3.022a.172.172 0 0 1-.174-.17v-4.78h7.304v4.78zM2.848 3.512c0-.094.078-.17.174-.17H9.978c.096 0 .174.076.174.17v.854H2.848v-.854zM9.978 3H3.022a.52.52 0 0 0-.174.032.512.512 0 0 0-.348.48V9.488c0 .283.234.512.522.512h6.956c.287 0 .522-.23.522-.512V3.512A.517.517 0 0 0 9.978 3z"/>
    </g>
</svg>
